# xmcd
#
# Track frame offsets:
#	150
#	18623
#	41023
#	58968
#
# Disc length: 1210 seconds
#
# Revision: 1
# Processed by: cddbd v1.5.1PL0 Copyright (c) Steve Scherf et al.
# Submitted via: EasyCDDAExtractor 6.5.0.1
#
DISCID=3404b804
DTITLE=Dan Hartman - The Love In Your Eyes
DYEAR=1900
DGENRE=
TTITLE0=The Love In Your Eyes(Radio Version)
TTITLE1=The Love In Your Eyes(Album Version)
TTITLE2=The Love In Your Eyes(Hip Radio Version)
TTITLE3=The Love In Your Eyes(Classic Frankie)
EXTD=
EXTT0=
EXTT1=
EXTT2=
EXTT3=
PLAYORDER=
